<?xml version="1.0" standalone="no"?>
<!DOCTYPE svg PUBLIC "-//W3C//DTD SVG 20010904//EN"
 "http://www.w3.org/TR/2001/REC-SVG-20010904/DTD/svg10.dtd">
<svg version="1.0" xmlns="http://www.w3.org/2000/svg"
 width="32.000000pt" height="32.000000pt" viewBox="0 0 32.000000 32.000000"
 preserveAspectRatio="xMidYMid meet">

<g transform="translate(0.000000,32.000000) scale(0.100000,-0.100000)"
fill="#000000" stroke="none">
<path d="M0 160 l0 -160 30 0 c23 0 30 4 30 20 0 11 7 20 15 20 8 0 15 -9 15
-20 0 -11 5 -20 10 -20 6 0 10 16 10 35 0 24 5 35 15 35 10 0 15 -11 15 -35 0
-19 5 -35 10 -35 6 0 10 20 10 45 0 38 3 45 20 45 17 0 20 -7 20 -45 0 -25 3
-45 8 -45 4 0 5 29 4 65 -3 60 -2 65 17 65 19 0 21 -6 21 -65 l0 -65 35 0 35
0 0 160 0 160 -160 0 -160 0 0 -160z"/>
</g>
</svg>
